<svg id="visual" viewBox="0 0 900 600" width="900" height="600" xmlns="http://www.w3.org/2000/svg" xmlns:xlink="http://www.w3.org/1999/xlink" version="1.1"><rect x="0" y="0" width="900" height="600" fill="#202731"></rect><path d="M0 398L18.8 397C37.7 396 75.3 394 112.8 396.5C150.3 399 187.7 406 225.2 399.7C262.7 393.3 300.3 373.7 337.8 373.3C375.3 373 412.7 392 450.2 404.8C487.7 417.7 525.3 424.3 562.8 414.5C600.3 404.7 637.7 378.3 675.2 369.7C712.7 361 750.3 370 787.8 372.5C825.3 375 862.7 371 881.3 369L900 367L900 0L881.3 0C862.7 0 825.3 0 787.8 0C750.3 0 712.7 0 675.2 0C637.7 0 600.3 0 562.8 0C525.3 0 487.7 0 450.2 0C412.7 0 375.3 0 337.8 0C300.3 0 262.7 0 225.2 0C187.7 0 150.3 0 112.8 0C75.3 0 37.7 0 18.8 0L0 0Z" fill="#0d2761"></path><path d="M0 346L18.8 336.8C37.7 327.7 75.3 309.3 112.8 305.7C150.3 302 187.7 313 225.2 308.3C262.7 303.7 300.3 283.3 337.8 275.7C375.3 268 412.7 273 450.2 285.5C487.7 298 525.3 318 562.8 321.3C600.3 324.7 637.7 311.3 675.2 310.8C712.7 310.3 750.3 322.7 787.8 319.3C825.3 316 862.7 297 881.3 287.5L900 278L900 0L881.3 0C862.7 0 825.3 0 787.8 0C750.3 0 712.7 0 675.2 0C637.7 0 600.3 0 562.8 0C525.3 0 487.7 0 450.2 0C412.7 0 375.3 0 337.8 0C300.3 0 262.7 0 225.2 0C187.7 0 150.3 0 112.8 0C75.3 0 37.7 0 18.8 0L0 0Z" fill="#324783"></path><path d="M0 241L18.8 244.7C37.7 248.3 75.3 255.7 112.8 253C150.3 250.3 187.7 237.7 225.2 226.8C262.7 216 300.3 207 337.8 210.3C375.3 213.7 412.7 229.3 450.2 239.5C487.7 249.7 525.3 254.3 562.8 253.7C600.3 253 637.7 247 675.2 240C712.7 233 750.3 225 787.8 230.7C825.3 236.3 862.7 255.7 881.3 265.3L900 275L900 0L881.3 0C862.7 0 825.3 0 787.8 0C750.3 0 712.7 0 675.2 0C637.7 0 600.3 0 562.8 0C525.3 0 487.7 0 450.2 0C412.7 0 375.3 0 337.8 0C300.3 0 262.7 0 225.2 0C187.7 0 150.3 0 112.8 0C75.3 0 37.7 0 18.8 0L0 0Z" fill="#5369a7"></path><path d="M0 159L18.8 156C37.7 153 75.3 147 112.8 150.8C150.3 154.7 187.7 168.3 225.2 177.2C262.7 186 300.3 190 337.8 180.7C375.3 171.3 412.7 148.7 450.2 135.7C487.7 122.7 525.3 119.3 562.8 123.7C600.3 128 637.7 140 675.2 147.7C712.7 155.3 750.3 158.7 787.8 152.7C825.3 146.7 862.7 131.3 881.3 123.7L900 116L900 0L881.3 0C862.7 0 825.3 0 787.8 0C750.3 0 712.7 0 675.2 0C637.7 0 600.3 0 562.8 0C525.3 0 487.7 0 450.2 0C412.7 0 375.3 0 337.8 0C300.3 0 262.7 0 225.2 0C187.7 0 150.3 0 112.8 0C75.3 0 37.7 0 18.8 0L0 0Z" fill="#748dcc"></path><path d="M0 110L18.8 102.2C37.7 94.3 75.3 78.7 112.8 76.7C150.3 74.7 187.7 86.3 225.2 94.2C262.7 102 300.3 106 337.8 106.3C375.3 106.7 412.7 103.3 450.2 104.7C487.7 106 525.3 112 562.8 114.5C600.3 117 637.7 116 675.2 114.8C712.7 113.7 750.3 112.3 787.8 105.5C825.3 98.7 862.7 86.3 881.3 80.2L900 74L900 0L881.3 0C862.7 0 825.3 0 787.8 0C750.3 0 712.7 0 675.2 0C637.7 0 600.3 0 562.8 0C525.3 0 487.7 0 450.2 0C412.7 0 375.3 0 337.8 0C300.3 0 262.7 0 225.2 0C187.7 0 150.3 0 112.8 0C75.3 0 37.7 0 18.8 0L0 0Z" fill="#96b3f1"></path></svg>