<svg id="visual" viewBox="0 0 960 540" width="960" height="540" xmlns="http://www.w3.org/2000/svg" xmlns:xlink="http://www.w3.org/1999/xlink" version="1.1"><rect width="960" height="540" fill="#202731"></rect><g><g transform="translate(43 32)"><path d="M0 -89.8L77.8 -44.9L77.8 44.9L0 89.8L-77.8 44.9L-77.8 -44.9Z" fill="#4879e0"></path></g><g transform="translate(846 374)"><path d="M0 -54L46.8 -27L46.8 27L0 54L-46.8 27L-46.8 -27Z" fill="#4879e0"></path></g><g transform="translate(294 477)"><path d="M0 -51L44.2 -25.5L44.2 25.5L0 51L-44.2 25.5L-44.2 -25.5Z" fill="#4879e0"></path></g><g transform="translate(519 300)"><path d="M0 -87L75.3 -43.5L75.3 43.5L0 87L-75.3 43.5L-75.3 -43.5Z" fill="#4879e0"></path></g><g transform="translate(147 319)"><path d="M0 -56L48.5 -28L48.5 28L0 56L-48.5 28L-48.5 -28Z" fill="#4879e0"></path></g></g></svg>